<svg xmlns="http://www.w3.org/2000/svg" xmlns:xlink="http://www.w3.org/1999/xlink" width="1400" zoomAndPan="magnify" viewBox="0 0 1050 149.999998" height="200" preserveAspectRatio="xMidYMid meet" version="1.0"><defs><g/><clipPath id="3c7335afda"><path d="M 36 0 L 185 0 L 185 148 L 36 148 Z M 36 0 " clip-rule="nonzero"/></clipPath><clipPath id="b3db6e5a63"><path d="M 0 33.203125 L 130.609375 -30.917969 L 194.730469 99.691406 L 64.121094 163.8125 Z M 0 33.203125 " clip-rule="nonzero"/></clipPath><clipPath id="db287b4519"><path d="M 0 33.203125 L 130.609375 -30.917969 L 194.730469 99.691406 L 64.121094 163.8125 Z M 0 33.203125 " clip-rule="nonzero"/></clipPath></defs><g fill="#ffffff" fill-opacity="1"><g transform="translate(200.476667, 131.126449)"><g><path d="M 105.765625 -53.625 C 105.765625 -33.28125 100.035156 -19.109375 88.578125 -11.109375 C 78.015625 -3.703125 63.5 0 45.03125 0 L 3.109375 0 L 3.109375 -2.8125 L 12.890625 -2.8125 L 12.890625 -100.875 L 3.109375 -100.875 L 3.109375 -103.6875 L 48.875 -103.6875 C 67.84375 -103.6875 82.066406 -99.8125 91.546875 -92.0625 C 101.023438 -84.3125 105.765625 -71.5 105.765625 -53.625 Z M 41.765625 -2.8125 L 47.40625 -2.8125 C 57.375 -2.8125 64.503906 -6.34375 68.796875 -13.40625 C 73.097656 -20.46875 75.25 -32.289062 75.25 -48.875 L 75.25 -57.46875 C 75.25 -79.6875 71.003906 -93.066406 62.515625 -97.609375 C 58.460938 -99.785156 52.734375 -100.875 45.328125 -100.875 L 41.765625 -100.875 Z M 41.765625 -2.8125 "/></g></g></g><g fill="#ffffff" fill-opacity="1"><g transform="translate(312.30226, 131.126449)"><g><path d="M 40.4375 1.484375 C 27.695312 1.484375 18.140625 -1.796875 11.765625 -8.359375 C 5.398438 -14.929688 2.21875 -24.066406 2.21875 -35.765625 C 2.21875 -47.472656 5.796875 -56.4375 12.953125 -62.65625 C 20.117188 -68.875 29.234375 -71.984375 40.296875 -71.984375 C 62.710938 -71.984375 73.472656 -60.726562 72.578125 -38.21875 L 30.8125 -38.21875 L 30.8125 -32.4375 C 30.8125 -22.757812 32.046875 -15.453125 34.515625 -10.515625 C 36.984375 -5.578125 41.28125 -3.109375 47.40625 -3.109375 C 58.851562 -3.109375 66.359375 -9.234375 69.921875 -21.484375 L 72.578125 -21.03125 C 70.703125 -13.925781 67.320312 -8.394531 62.4375 -4.4375 C 57.550781 -0.488281 50.21875 1.484375 40.4375 1.484375 Z M 30.953125 -41.171875 L 46.21875 -41.171875 L 46.21875 -48.4375 C 46.21875 -56.4375 45.75 -61.890625 44.8125 -64.796875 C 43.875 -67.710938 41.992188 -69.171875 39.171875 -69.171875 C 36.359375 -69.171875 34.285156 -67.613281 32.953125 -64.5 C 31.617188 -61.394531 30.953125 -56.039062 30.953125 -48.4375 Z M 30.953125 -41.171875 "/></g></g></g><g fill="#ffffff" fill-opacity="1"><g transform="translate(388.728751, 131.126449)"><g><path d="M 0 -67.84375 L 0 -70.5 L 44.296875 -70.5 L 44.296875 -67.84375 L 34.953125 -67.84375 L 52.734375 -18.65625 L 68.734375 -67.84375 L 58.8125 -67.84375 L 58.8125 -70.5 L 78.796875 -70.5 L 78.796875 -67.84375 L 72.28125 -67.84375 L 50.359375 0 L 33.46875 0 L 6.078125 -67.84375 Z M 0 -67.84375 "/></g></g></g><g fill="#ff914d" fill-opacity="1"><g transform="translate(467.535245, 131.126449)"><g><path d="M 59.25 -102.359375 C 43.945312 -102.359375 36.296875 -87.59375 36.296875 -58.0625 L 36.296875 -46.359375 C 36.296875 -32.335938 38.316406 -21.351562 42.359375 -13.40625 C 46.410156 -5.457031 52.382812 -1.484375 60.28125 -1.484375 C 71.144531 -1.484375 81.117188 -12.050781 90.203125 -33.1875 L 92.875 -33.1875 L 91.84375 -0.140625 L 90.203125 -0.140625 C 89.609375 -1.234375 89.066406 -2 88.578125 -2.4375 C 88.085938 -2.882812 87.375 -3.109375 86.4375 -3.109375 C 85.5 -3.109375 81.914062 -2.34375 75.6875 -0.8125 C 69.46875 0.71875 63.148438 1.484375 56.734375 1.484375 C 40.640625 1.484375 28.171875 -2.859375 19.328125 -11.546875 C 10.492188 -20.242188 6.078125 -33.304688 6.078125 -50.734375 C 6.078125 -68.160156 10.691406 -81.613281 19.921875 -91.09375 C 29.148438 -100.570312 41.566406 -105.3125 57.171875 -105.3125 C 63.203125 -105.3125 69.101562 -104.546875 74.875 -103.015625 C 80.65625 -101.484375 84.035156 -100.71875 85.015625 -100.71875 C 86.003906 -100.71875 86.742188 -100.941406 87.234375 -101.390625 C 87.734375 -101.835938 88.28125 -102.601562 88.875 -103.6875 L 90.5 -103.6875 L 91.6875 -71.546875 L 89.015625 -71.546875 C 84.578125 -81.515625 80.007812 -89.140625 75.3125 -94.421875 C 70.625 -99.710938 65.269531 -102.359375 59.25 -102.359375 Z M 59.25 -102.359375 "/></g></g></g><g fill="#ff914d" fill-opacity="1"><g transform="translate(569.733462, 131.126449)"><g><path d="M 23.25 -80.734375 C 18.019531 -80.734375 14.289062 -82.066406 12.0625 -84.734375 C 9.84375 -87.398438 8.734375 -90.707031 8.734375 -94.65625 C 8.734375 -98.601562 9.941406 -101.859375 12.359375 -104.421875 C 14.785156 -106.992188 18.46875 -108.28125 23.40625 -108.28125 C 28.34375 -108.28125 32.09375 -107.117188 34.65625 -104.796875 C 37.226562 -102.472656 38.515625 -99.164062 38.515625 -94.875 C 38.515625 -90.582031 37.28125 -87.148438 34.8125 -84.578125 C 32.34375 -82.015625 28.488281 -80.734375 23.25 -80.734375 Z M 0.890625 -70.5 L 37.171875 -70.5 L 37.171875 -2.671875 L 45.46875 -2.671875 L 45.46875 0 L 1.484375 0 L 1.484375 -2.671875 L 9.625 -2.671875 L 9.625 -67.84375 L 0.890625 -67.84375 Z M 0.890625 -70.5 "/></g></g></g><g fill="#ff914d" fill-opacity="1"><g transform="translate(616.685398, 131.126449)"><g><path d="M 50.953125 -66.359375 C 47.296875 -66.359375 44.082031 -63.988281 41.3125 -59.25 C 38.550781 -54.507812 37.171875 -48.878906 37.171875 -42.359375 L 37.171875 -2.671875 L 47.703125 -2.671875 L 47.703125 0 L 1.484375 0 L 1.484375 -2.671875 L 9.625 -2.671875 L 9.625 -67.84375 L 1.484375 -67.84375 L 1.484375 -70.5 L 37.171875 -70.5 L 37.171875 -56.28125 C 38.460938 -61.320312 40.929688 -65.195312 44.578125 -67.90625 C 48.234375 -70.625 52.378906 -71.984375 57.015625 -71.984375 C 61.660156 -71.984375 65.441406 -70.675781 68.359375 -68.0625 C 71.273438 -65.445312 72.734375 -61.742188 72.734375 -56.953125 C 72.734375 -52.160156 71.644531 -48.476562 69.46875 -45.90625 C 67.300781 -43.34375 63.96875 -42.0625 59.46875 -42.0625 C 54.976562 -42.0625 51.671875 -43.539062 49.546875 -46.5 C 47.421875 -49.46875 47.148438 -53.570312 48.734375 -58.8125 L 54.0625 -58.8125 C 56.53125 -63.84375 55.492188 -66.359375 50.953125 -66.359375 Z M 50.953125 -66.359375 "/></g></g></g><g fill="#ff914d" fill-opacity="1"><g transform="translate(690.00151, 131.126449)"><g><path d="M 42.953125 -69.328125 C 38.609375 -69.328125 35.5 -66.957031 33.625 -62.21875 C 31.75 -57.476562 30.8125 -49.625 30.8125 -38.65625 L 30.8125 -30.953125 C 30.8125 -21.179688 31.894531 -14.171875 34.0625 -9.921875 C 36.238281 -5.679688 40.238281 -3.5625 46.0625 -3.5625 C 51.894531 -3.5625 56.535156 -5.535156 59.984375 -9.484375 C 63.441406 -13.429688 65.664062 -17.921875 66.65625 -22.953125 L 69.328125 -22.65625 C 67.453125 -14.164062 63.992188 -8.046875 58.953125 -4.296875 C 53.816406 -0.441406 46.753906 1.484375 37.765625 1.484375 C 26.316406 1.484375 17.53125 -1.597656 11.40625 -7.765625 C 5.28125 -13.941406 2.21875 -22.976562 2.21875 -34.875 C 2.21875 -46.78125 5.695312 -55.941406 12.65625 -62.359375 C 19.625 -68.773438 29.328125 -71.984375 41.765625 -71.984375 C 50.554688 -71.984375 57.269531 -70.28125 61.90625 -66.875 C 66.550781 -63.46875 68.875 -59.195312 68.875 -54.0625 C 68.875 -48.925781 67.765625 -45.171875 65.546875 -42.796875 C 63.328125 -40.429688 60.265625 -39.25 56.359375 -39.25 C 52.460938 -39.25 49.328125 -40.285156 46.953125 -42.359375 C 44.585938 -44.429688 43.40625 -47.492188 43.40625 -51.546875 C 43.40625 -53.328125 43.648438 -55.101562 44.140625 -56.875 L 49.03125 -56.875 C 49.71875 -58.851562 50.0625 -60.632812 50.0625 -62.21875 C 50.0625 -66.957031 47.691406 -69.328125 42.953125 -69.328125 Z M 42.953125 -69.328125 "/></g></g></g><g fill="#ff914d" fill-opacity="1"><g transform="translate(761.540264, 131.126449)"><g><path d="M 0.890625 -111.09375 L 37.171875 -111.09375 L 37.171875 -2.671875 L 45.46875 -2.671875 L 45.46875 0 L 1.484375 0 L 1.484375 -2.671875 L 9.625 -2.671875 L 9.625 -108.421875 L 0.890625 -108.421875 Z M 0.890625 -111.09375 "/></g></g></g><g fill="#ff914d" fill-opacity="1"><g transform="translate(808.344078, 131.126449)"><g><path d="M 40.4375 1.484375 C 27.695312 1.484375 18.140625 -1.796875 11.765625 -8.359375 C 5.398438 -14.929688 2.21875 -24.066406 2.21875 -35.765625 C 2.21875 -47.472656 5.796875 -56.4375 12.953125 -62.65625 C 20.117188 -68.875 29.234375 -71.984375 40.296875 -71.984375 C 62.710938 -71.984375 73.472656 -60.726562 72.578125 -38.21875 L 30.8125 -38.21875 L 30.8125 -32.4375 C 30.8125 -22.757812 32.046875 -15.453125 34.515625 -10.515625 C 36.984375 -5.578125 41.28125 -3.109375 47.40625 -3.109375 C 58.851562 -3.109375 66.359375 -9.234375 69.921875 -21.484375 L 72.578125 -21.03125 C 70.703125 -13.925781 67.320312 -8.394531 62.4375 -4.4375 C 57.550781 -0.488281 50.21875 1.484375 40.4375 1.484375 Z M 30.953125 -41.171875 L 46.21875 -41.171875 L 46.21875 -48.4375 C 46.21875 -56.4375 45.75 -61.890625 44.8125 -64.796875 C 43.875 -67.710938 41.992188 -69.171875 39.171875 -69.171875 C 36.359375 -69.171875 34.285156 -67.613281 32.953125 -64.5 C 31.617188 -61.394531 30.953125 -56.039062 30.953125 -48.4375 Z M 30.953125 -41.171875 "/></g></g></g><g clip-path="url(#3c7335afda)"><g clip-path="url(#b3db6e5a63)"><g clip-path="url(#db287b4519)"><path fill="#ff914d" d="M 164.664062 42.457031 L 125.828125 39.882812 L 108.632812 4.851562 C 108.242188 4.058594 107.613281 3.582031 106.667969 3.652344 L 66.410156 0.992188 C 65.621094 0.984375 64.828125 1.375 64.351562 2.003906 L 41.835938 35.480469 C 41.359375 36.109375 41.273438 37.136719 41.582031 37.769531 L 58.78125 72.800781 L 37.066406 105.097656 C 36.585938 105.726562 36.5 106.75 36.8125 107.386719 L 54.554688 143.523438 C 54.945312 144.316406 55.570312 144.796875 56.519531 144.722656 L 96.777344 147.386719 C 97.171875 147.390625 97.566406 147.390625 98.039062 147.160156 C 98.359375 147.003906 98.753906 146.609375 98.996094 146.296875 L 120.710938 114 L 159.542969 116.570312 C 159.9375 116.574219 160.332031 116.578125 160.808594 116.34375 C 161.285156 116.109375 161.523438 115.796875 161.761719 115.480469 L 184.277344 82.003906 C 184.753906 81.375 184.839844 80.351562 184.53125 79.714844 L 166.789062 43.578125 C 166.082031 42.941406 165.453125 42.460938 164.664062 42.457031 Z M 93.257812 142.621094 L 58.210938 140.15625 L 42.882812 108.929688 L 77.847656 111.238281 Z M 47.496094 39.390625 L 79.777344 41.441406 L 61.734375 68.398438 Z M 97.378906 140.597656 L 83.136719 111.59375 L 115.5 113.800781 Z M 115.535156 109.066406 L 83.171875 106.855469 L 101.214844 79.898438 Z M 97.792969 72.925781 L 65.429688 70.714844 L 83.472656 43.761719 Z M 105.988281 10.28125 L 120.304688 39.449219 L 87.941406 37.238281 Z M 87.75 42.054688 L 120.035156 44.105469 L 101.992188 71.058594 Z M 140.886719 75.765625 L 105.921875 73.457031 L 125.480469 44.382812 L 160.449219 46.691406 Z M 179.46875 80.628906 L 159.988281 109.863281 L 144.582031 78.476562 L 164.140625 49.402344 Z M 179.46875 80.628906 " fill-opacity="1" fill-rule="nonzero"/></g></g></g></svg>